<?xml version="1.0" encoding="iso-8859-1"?>
<!-- Generator: Adobe Illustrator 19.0.0, SVG Export Plug-In . SVG Version: 6.00 Build 0)  -->
<svg version="1.1" id="Layer_1" xmlns="http://www.w3.org/2000/svg" xmlns:xlink="http://www.w3.org/1999/xlink" x="0px" y="0px"
	 viewBox="0 0 512 512" style="enable-background:new 0 0 512 512;" xml:space="preserve">
<path style="fill:#C52828;" d="M17.067,119.467h477.867c4.71,0,8.533,3.823,8.533,8.533v315.733c0,4.71-3.823,8.533-8.533,8.533
	H17.067c-4.71,0-8.533-3.823-8.533-8.533V128C8.533,123.29,12.356,119.467,17.067,119.467z"/>
<path style="fill:#F44335;" d="M17.067,119.467H460.8c4.71,0,8.533,3.823,8.533,8.533v315.733c0,4.71-3.823,8.533-8.533,8.533
	H17.067c-4.71,0-8.533-3.823-8.533-8.533V128C8.533,123.29,12.356,119.467,17.067,119.467z"/>
<path d="M494.933,460.8H17.067C7.637,460.8,0,453.163,0,443.733V128c0-9.429,7.637-17.067,17.067-17.067h477.867
	c9.429,0,17.067,7.637,17.067,17.067v315.733C512,453.163,504.363,460.8,494.933,460.8z M17.067,128v315.733h477.867V128H17.067z"/>
<g>
	<path style="fill:#37474F;" d="M179.2,341.333c0,37.7-30.566,68.267-68.267,68.267c-5.751-0.009-11.486-0.725-17.067-2.133
		c-36.523-9.353-58.556-46.541-49.203-83.063c6.187-24.158,25.045-43.017,49.203-49.203c5.581-1.408,11.315-2.125,17.067-2.133
		C148.634,273.067,179.2,303.633,179.2,341.333z"/>
	<path style="fill:#37474F;" d="M469.333,341.333c0,37.7-30.566,68.267-68.267,68.267c-5.751-0.009-11.486-0.725-17.067-2.133
		c-36.523-9.353-58.556-46.541-49.203-83.063c6.187-24.158,25.045-43.017,49.203-49.203c5.581-1.408,11.315-2.125,17.067-2.133
		C438.767,273.067,469.333,303.633,469.333,341.333z"/>
</g>
<g>
	<path style="fill:#607D8B;" d="M145.067,341.333c0.017,31.138-21.043,58.351-51.2,66.133
		c-36.523-9.353-58.556-46.541-49.203-83.063c6.187-24.158,25.045-43.017,49.203-49.203
		C124.023,282.982,145.084,310.195,145.067,341.333z"/>
	<path style="fill:#607D8B;" d="M435.2,341.333c0.017,31.138-21.043,58.351-51.2,66.133c-36.523-9.353-58.556-46.541-49.203-83.063
		c6.187-24.158,25.045-43.017,49.203-49.203C414.157,282.982,435.217,310.195,435.2,341.333z"/>
</g>
<path d="M110.933,418.133c-42.419,0-76.8-34.381-76.8-76.8s34.381-76.8,76.8-76.8s76.8,34.381,76.8,76.8
	S153.353,418.133,110.933,418.133z M110.933,281.6c-32.99,0-59.733,26.743-59.733,59.733s26.743,59.733,59.733,59.733
	s59.733-26.743,59.733-59.733S143.923,281.6,110.933,281.6z"/>
<path d="M145.067,349.867c-4.71,0-8.533-3.823-8.533-8.533c0-14.14-11.46-25.6-25.6-25.6c-4.71,0-8.533-3.823-8.533-8.533
	s3.823-8.533,8.533-8.533c23.561,0,42.667,19.106,42.667,42.667C153.6,346.044,149.777,349.867,145.067,349.867z"/>
<path d="M110.933,349.867c-4.71,0-8.533-3.823-8.533-8.533c0.017-1.118,0.247-2.219,0.683-3.243
	c0.435-1.033,1.041-1.988,1.792-2.816c3.319-3.345,8.721-3.371,12.066-0.051c0.017,0.017,0.034,0.034,0.051,0.051
	c0.751,0.828,1.357,1.783,1.792,2.816c0.435,1.024,0.666,2.125,0.683,3.243C119.467,346.044,115.644,349.867,110.933,349.867z"/>
<path d="M401.067,418.133c-42.419,0-76.8-34.381-76.8-76.8s34.381-76.8,76.8-76.8s76.8,34.381,76.8,76.8
	S443.486,418.133,401.067,418.133z M401.067,281.6c-32.99,0-59.733,26.743-59.733,59.733s26.743,59.733,59.733,59.733
	s59.733-26.743,59.733-59.733S434.057,281.6,401.067,281.6z"/>
<path d="M435.2,349.867c-4.71,0-8.533-3.823-8.533-8.533c0-14.14-11.46-25.6-25.6-25.6c-4.71,0-8.533-3.823-8.533-8.533
	s3.823-8.533,8.533-8.533c23.561,0,42.667,19.106,42.667,42.667C443.733,346.044,439.91,349.867,435.2,349.867z"/>
<path d="M401.067,349.867c-1.118-0.017-2.219-0.247-3.243-0.683c-1.05-0.41-2.005-1.015-2.816-1.792
	c-3.345-3.319-3.371-8.721-0.051-12.066c0.017-0.017,0.034-0.034,0.051-0.051c3.319-3.345,8.721-3.371,12.066-0.051
	c0.017,0.017,0.034,0.034,0.051,0.051l1.024,1.28c0.324,0.478,0.58,0.99,0.768,1.536c0.247,0.486,0.418,0.998,0.512,1.536
	c0.23,1.126,0.23,2.287,0,3.413c-0.094,0.538-0.265,1.05-0.512,1.536c-0.188,0.546-0.444,1.058-0.768,1.536l-1.024,1.28
	C405.487,348.954,403.328,349.833,401.067,349.867z"/>
<rect x="213.333" y="307.2" style="fill:#2296F3;" width="85.333" height="51.2"/>
<path d="M298.667,366.933h-85.333c-4.71,0-8.533-3.823-8.533-8.533v-51.2c0-4.71,3.823-8.533,8.533-8.533h85.333
	c4.71,0,8.533,3.823,8.533,8.533v51.2C307.2,363.11,303.377,366.933,298.667,366.933z M221.867,349.867h68.267v-34.133h-68.267
	V349.867z"/>
<rect x="213.333" y="358.4" style="fill:#1566C0;" width="85.333" height="34.133"/>
<path d="M298.667,401.067h-85.333c-4.71,0-8.533-3.823-8.533-8.533V358.4c0-4.71,3.823-8.533,8.533-8.533h85.333
	c4.71,0,8.533,3.823,8.533,8.533v34.133C307.2,397.244,303.377,401.067,298.667,401.067z M221.867,384h68.267v-17.067h-68.267V384z"
	/>
<path d="M247.467,401.067c-4.71,0-8.533-3.823-8.533-8.533V358.4c0-4.71,3.823-8.533,8.533-8.533S256,353.69,256,358.4v34.133
	C256,397.244,252.177,401.067,247.467,401.067z"/>
<rect x="42.667" y="187.733" style="fill:#2296F3;" width="341.333" height="51.2"/>
<path d="M384,247.467H42.667c-4.71,0-8.533-3.823-8.533-8.533v-51.2c0-4.71,3.823-8.533,8.533-8.533H384
	c4.71,0,8.533,3.823,8.533,8.533v51.2C392.533,243.644,388.71,247.467,384,247.467z M51.2,230.4h324.267v-34.133H51.2V230.4z"/>
<path d="M93.867,247.467c-4.71,0-8.533-3.823-8.533-8.533v-40.96c0-4.71,3.823-8.533,8.533-8.533c4.71,0,8.533,3.823,8.533,8.533
	v40.96C102.4,243.644,98.577,247.467,93.867,247.467z"/>
<circle style="fill:#607D8B;" cx="443.733" cy="213.333" r="25.6"/>
<path d="M443.733,247.467c-18.85,0-34.133-15.283-34.133-34.133s15.283-34.133,34.133-34.133s34.133,15.283,34.133,34.133
	S462.583,247.467,443.733,247.467z M443.733,196.267c-9.429,0-17.067,7.637-17.067,17.067s7.637,17.067,17.067,17.067
	c9.429,0,17.067-7.637,17.067-17.067S453.163,196.267,443.733,196.267z"/>
<path d="M76.8,162.133H42.667c-4.71,0-8.533-3.823-8.533-8.533s3.823-8.533,8.533-8.533H76.8c4.71,0,8.533,3.823,8.533,8.533
	S81.51,162.133,76.8,162.133z"/>
<path d="M145.067,162.133h-34.133c-4.71,0-8.533-3.823-8.533-8.533s3.823-8.533,8.533-8.533h34.133c4.71,0,8.533,3.823,8.533,8.533
	S149.777,162.133,145.067,162.133z"/>
<path d="M213.333,162.133H179.2c-4.71,0-8.533-3.823-8.533-8.533s3.823-8.533,8.533-8.533h34.133c4.71,0,8.533,3.823,8.533,8.533
	S218.044,162.133,213.333,162.133z"/>
<path d="M281.6,162.133h-34.133c-4.71,0-8.533-3.823-8.533-8.533s3.823-8.533,8.533-8.533H281.6c4.71,0,8.533,3.823,8.533,8.533
	S286.31,162.133,281.6,162.133z"/>
<path d="M349.867,162.133h-34.133c-4.71,0-8.533-3.823-8.533-8.533s3.823-8.533,8.533-8.533h34.133c4.71,0,8.533,3.823,8.533,8.533
	S354.577,162.133,349.867,162.133z"/>
<path d="M418.133,162.133H384c-4.71,0-8.533-3.823-8.533-8.533s3.823-8.533,8.533-8.533h34.133c4.71,0,8.533,3.823,8.533,8.533
	S422.844,162.133,418.133,162.133z"/>
<path d="M469.333,162.133h-17.067c-4.71,0-8.533-3.823-8.533-8.533s3.823-8.533,8.533-8.533h17.067c4.71,0,8.533,3.823,8.533,8.533
	S474.044,162.133,469.333,162.133z"/>
<path d="M477.867,128H34.133c-4.71,0-8.533-3.823-8.533-8.533V76.8c0-14.14,11.46-25.6,25.6-25.6h409.6
	c14.14,0,25.6,11.46,25.6,25.6v42.667C486.4,124.177,482.577,128,477.867,128z M42.667,110.933h426.667V76.8
	c0-4.71-3.823-8.533-8.533-8.533H51.2c-4.71,0-8.533,3.823-8.533,8.533V110.933z"/>
<path d="M128,213.333c-4.71,0-8.533-3.823-8.533-8.533v-17.067c0-4.71,3.823-8.533,8.533-8.533c4.71,0,8.533,3.823,8.533,8.533
	V204.8C136.533,209.51,132.71,213.333,128,213.333z"/>
<path d="M162.133,213.333c-4.71,0-8.533-3.823-8.533-8.533v-17.067c0-4.71,3.823-8.533,8.533-8.533s8.533,3.823,8.533,8.533V204.8
	C170.667,209.51,166.844,213.333,162.133,213.333z"/>
<path d="M196.267,213.333c-4.71,0-8.533-3.823-8.533-8.533v-17.067c0-4.71,3.823-8.533,8.533-8.533s8.533,3.823,8.533,8.533V204.8
	C204.8,209.51,200.977,213.333,196.267,213.333z"/>
<path d="M230.4,213.333c-4.71,0-8.533-3.823-8.533-8.533v-17.067c0-4.71,3.823-8.533,8.533-8.533s8.533,3.823,8.533,8.533V204.8
	C238.933,209.51,235.11,213.333,230.4,213.333z"/>
<path d="M264.533,213.333c-4.71,0-8.533-3.823-8.533-8.533v-17.067c0-4.71,3.823-8.533,8.533-8.533c4.71,0,8.533,3.823,8.533,8.533
	V204.8C273.067,209.51,269.244,213.333,264.533,213.333z"/>
<path d="M298.667,213.333c-4.71,0-8.533-3.823-8.533-8.533v-17.067c0-4.71,3.823-8.533,8.533-8.533s8.533,3.823,8.533,8.533V204.8
	C307.2,209.51,303.377,213.333,298.667,213.333z"/>
<path d="M332.8,213.333c-4.71,0-8.533-3.823-8.533-8.533v-17.067c0-4.71,3.823-8.533,8.533-8.533s8.533,3.823,8.533,8.533V204.8
	C341.333,209.51,337.51,213.333,332.8,213.333z"/>
<path d="M230.4,426.667h-51.2c-4.71,0-8.533-3.823-8.533-8.533s3.823-8.533,8.533-8.533h51.2c4.71,0,8.533,3.823,8.533,8.533
	S235.11,426.667,230.4,426.667z"/>
<path d="M332.8,426.667h-51.2c-4.71,0-8.533-3.823-8.533-8.533s3.823-8.533,8.533-8.533h51.2c4.71,0,8.533,3.823,8.533,8.533
	S337.51,426.667,332.8,426.667z"/>
<path d="M281.6,281.6h-51.2c-4.71,0-8.533-3.823-8.533-8.533s3.823-8.533,8.533-8.533h51.2c4.71,0,8.533,3.823,8.533,8.533
	C290.133,277.777,286.31,281.6,281.6,281.6z"/>
<g>
</g>
<g>
</g>
<g>
</g>
<g>
</g>
<g>
</g>
<g>
</g>
<g>
</g>
<g>
</g>
<g>
</g>
<g>
</g>
<g>
</g>
<g>
</g>
<g>
</g>
<g>
</g>
<g>
</g>
</svg>
